<svg xmlns="http://www.w3.org/2000/svg" xmlns:xlink="http://www.w3.org/1999/xlink" width="1918.852" height="940" viewBox="0 0 1918.852 940"><defs><linearGradient id="a" x1="0.143" y1="0.72" x2="0.982" y2="0.168" gradientUnits="objectBoundingBox"><stop offset="0" stop-color="#c682f3"/><stop offset="1" stop-color="#dc00b0"/></linearGradient></defs><path d="M-531.994,940H-1905V609.944L-1741.482,0l.049,0c2.718.154,67.729,3.858,168.064,11.2,60.142,4.4,121.212,9.241,181.513,14.384,75.391,6.431,149.758,13.354,221.038,20.578C-989.327,64.559-826.381,85-686.506,106.915c40.429,6.334,79.444,12.879,115.962,19.454,38.429,6.918,75.15,14.059,109.143,21.224,35.654,7.515,69.279,15.262,99.941,23.026,32.068,8.119,61.793,16.482,88.351,24.858,23.105,7.287,45.07,14.767,65.282,22.233,19.841,7.328,38.568,14.854,55.661,22.369,16.761,7.369,32.434,14.941,46.586,22.5,13.861,7.409,26.664,15.026,38.053,22.638A299.984,299.984,0,0,1-37.462,307.99a200.6,200.6,0,0,1,22.62,22.9A141.118,141.118,0,0,1,.878,353.911a110.5,110.5,0,0,1,9.362,23.148,101.574,101.574,0,0,1,2.952,15.264,103.945,103.945,0,0,1,.6,15.315A114.1,114.1,0,0,1,12.192,423a132.6,132.6,0,0,1-3.641,15.417,178.427,178.427,0,0,1-12.8,30.985,282.38,282.38,0,0,1-19.13,31.18c-7.016,10.027-14.94,20.288-24.227,31.37-8.276,9.877-17.465,20.2-28.094,31.556-19.752,21.107-41.66,42.726-62.846,63.633l-.013.013-2.745,2.709c-18.287,18.049-39.851,37.915-64.093,59.047C-227.437,708.133-252.2,728.842-279,750.468c-45.124,36.411-96.768,76.052-153.5,117.823-32,23.561-65.472,47.687-99.491,71.709Z" transform="translate(1904.999)" fill="url(#a)"/></svg>