<svg xmlns="http://www.w3.org/2000/svg" width="38" height="41.999" viewBox="0 0 38 41.999"><g transform="translate(-5 -3.001)"><path d="M22.9,3.285a2.262,2.262,0,0,1,2.2,0c3.351,1.883,13.449,7.55,16.8,9.434A2.125,2.125,0,0,1,43,14.566V33.434a2.125,2.125,0,0,1-1.1,1.847L25.1,44.715a2.262,2.262,0,0,1-2.2,0L6.1,35.28A2.125,2.125,0,0,1,5,33.434V14.566a2.125,2.125,0,0,1,1.1-1.847c3.351-1.883,13.453-7.551,16.8-9.434Z" fill-rule="evenodd"/><path d="M5.3,34.4A1.713,1.713,0,0,1,5,33.254V14.5A2.11,2.11,0,0,1,6.094,12.66C9.437,10.79,19.5,5.152,22.844,3.281a2.411,2.411,0,0,1,2.27.008c3.343,1.871,13.37,7.457,16.714,9.328a2.088,2.088,0,0,1,.66.578Z" fill-rule="evenodd"/><path d="M24,10A14,14,0,1,1,10,24,14.006,14.006,0,0,1,24,10Zm0,7a7,7,0,1,1-7,7A7,7,0,0,1,24,17Z" fill="#fff" fill-rule="evenodd"/><path d="M42.484,13.2a2.3,2.3,0,0,1,.508,1.785c0,3.8-.031,14.59.008,18.383a2.179,2.179,0,0,1-.324,1.129L23.594,24Z" fill-rule="evenodd"/></g></svg>