<?xml version="1.0" encoding="iso-8859-1"?>
<!-- Generator: Adobe Illustrator 19.0.0, SVG Export Plug-In . SVG Version: 6.00 Build 0)  -->
<svg version="1.1" id="Layer_1" xmlns="http://www.w3.org/2000/svg" xmlns:xlink="http://www.w3.org/1999/xlink" x="0px" y="0px"
	 viewBox="0 0 512 512" style="enable-background:new 0 0 512 512;" xml:space="preserve">
<g>
	<g>
		<polygon points="311.216,253.989 308.544,265.616 315.722,265.616 318.394,253.989 		"/>
	</g>
</g>
<g>
	<g>
		<path d="M256,0C114.84,0,0,114.84,0,256s114.84,256,256,256s256-114.84,256-256S397.16,0,256,0z M248.065,291.852
			c-1.793,4.367-4.541,8.334-8.167,11.794c-3.588,3.422-7.73,6.333-12.312,8.652c-4.566,2.309-9.522,4.091-14.731,5.297
			c-5.212,1.206-10.36,1.818-15.299,1.818c-8.701,0-16.776-1.762-23.999-5.236c-7.204-3.464-13.504-8.12-18.725-13.839
			c-5.221-5.713-9.316-12.287-12.172-19.541c-2.858-7.25-4.307-14.724-4.307-22.212c0-7.163,1.366-14.307,4.061-21.232
			c2.697-6.934,6.687-13.242,11.862-18.747c5.172-5.502,11.529-10.02,18.893-13.428c7.385-3.415,15.918-5.147,25.363-5.147
			c11.309,0,21.264,2.375,29.59,7.059c8.346,4.699,14.656,11.014,18.755,18.768l0.512,0.967L220.998,245.6l-0.578-1.502
			c-1.018-2.642-2.374-4.849-4.032-6.56c-1.68-1.728-3.56-3.121-5.588-4.137c-2.055-1.025-4.212-1.752-6.407-2.162
			c-6.951-1.287-13.1-0.581-17.683,1.899c-3.121,1.687-5.712,3.915-7.706,6.622c-2.014,2.737-3.533,5.879-4.513,9.341
			c-0.992,3.498-1.495,7.014-1.495,10.456c-0.001,3.862,0.579,7.61,1.725,11.142c1.136,3.517,2.811,6.659,4.979,9.341
			c2.149,2.664,4.825,4.82,7.953,6.409c4.752,2.418,10.671,3.025,16.95,1.678c2.148-0.46,4.248-1.239,6.244-2.314
			c1.977-1.064,3.781-2.456,5.364-4.138c1.556-1.657,2.808-3.73,3.719-6.158l0.526-1.401l28.02,16.741L248.065,291.852z
			 M371.377,253.989h-0.001h-26.068l-2.672,11.626h20.46v25.225h-26.564l-6.656,27.598h-27.092l6.818-27.598h-7.162l-6.656,27.598
			h-27.092l6.818-27.598h-17.836v-25.225h23.957l2.672-11.626h-18.35v-23.602h24.135l7.305-29.708h27.095l-7.468,29.708h7.159
			l7.307-29.708h27.094l-7.468,29.708h20.265V253.989z"/>
	</g>
</g>
<g>
</g>
<g>
</g>
<g>
</g>
<g>
</g>
<g>
</g>
<g>
</g>
<g>
</g>
<g>
</g>
<g>
</g>
<g>
</g>
<g>
</g>
<g>
</g>
<g>
</g>
<g>
</g>
<g>
</g>
</svg>
