<svg height="512pt" viewBox="0 0 512 512" width="512pt" xmlns="http://www.w3.org/2000/svg"><path d="m274.070312 121.785156 134.214844 134.214844-134.214844 134.214844-28.285156-28.285156 85.929688-85.929688h-227.714844v-40h227.714844l-85.929688-85.929688zm237.929688 134.214844c0 68.378906-26.628906 132.667969-74.980469 181.019531-48.351562 48.351563-112.640625 74.980469-181.019531 74.980469s-132.667969-26.628906-181.019531-74.980469c-48.351563-48.351562-74.980469-112.640625-74.980469-181.019531s26.628906-132.667969 74.980469-181.019531c48.351562-48.351563 112.640625-74.980469 181.019531-74.980469s132.667969 26.628906 181.019531 74.980469c48.351563 48.351562 74.980469 112.640625 74.980469 181.019531zm-40 0c0-119.101562-96.898438-216-216-216s-216 96.898438-216 216 96.898438 216 216 216 216-96.898438 216-216zm0 0"/></svg>